<?xml version="1.0" standalone="no"?>
<!DOCTYPE svg PUBLIC "-//W3C//DTD SVG 20010904//EN"
 "http://www.w3.org/TR/2001/REC-SVG-20010904/DTD/svg10.dtd">
<svg version="1.0" xmlns="http://www.w3.org/2000/svg"
 width="287.000000pt" height="278.000000pt" viewBox="0 0 287.000000 278.000000"
 preserveAspectRatio="xMidYMid meet">

<g transform="translate(0.000000,278.000000) scale(0.100000,-0.100000)"
fill="#000000" stroke="none">
<path d="M1913 2713 c9 -2 23 -2 30 0 6 3 -1 5 -18 5 -16 0 -22 -2 -12 -5z"/>
<path d="M838 2703 c7 -3 16 -2 19 1 4 3 -2 6 -13 5 -11 0 -14 -3 -6 -6z"/>
<path d="M2005 2698 c22 -5 81 -18 130 -30 288 -66 522 -187 591 -304 44 -75
33 -165 -28 -235 -60 -68 -154 -125 -303 -184 -78 -31 -80 -32 -98 -81 -59
-160 -147 -284 -267 -377 -23 -18 -27 -23 -10 -14 114 56 207 168 270 327 42
105 44 107 83 115 78 17 258 116 326 179 42 39 81 120 81 169 0 175 -259 340
-665 422 -118 24 -192 33 -110 13z"/>
<path d="M798 2693 c7 -3 16 -2 19 1 4 3 -2 6 -13 5 -11 0 -14 -3 -6 -6z"/>
<path d="M645 2666 c-232 -60 -393 -136 -486 -226 -64 -63 -89 -112 -89 -176
0 -153 196 -297 525 -385 39 -10 79 -18 90 -18 l20 1 -20 5 c-149 35 -375 132
-467 200 -231 169 -143 369 228 519 48 20 142 51 208 69 137 38 129 47 -9 11z"/>
<path d="M330 2289 l0 -160 28 3 c26 3 27 5 32 73 l5 70 60 0 60 0 5 -70 c5
-68 6 -70 33 -73 l27 -3 0 161 0 161 -27 -3 c-26 -3 -28 -6 -33 -63 l-5 -60
-60 0 -60 0 -3 63 c-3 61 -3 62 -32 62 l-30 0 0 -161z"/>
<path d="M922 2293 l3 -158 28 -3 27 -3 0 160 0 161 -30 0 -31 0 3 -157z"/>
<path d="M1420 2290 l0 -160 30 0 30 0 0 105 c0 63 4 105 10 105 6 0 10 -8 10
-17 0 -9 5 -30 10 -47 6 -17 17 -57 26 -88 14 -53 18 -58 43 -58 25 0 30 5 40
48 7 26 16 61 21 78 6 17 10 40 10 52 0 12 5 22 10 22 10 0 14 -36 15 -140 0
-52 1 -55 28 -58 l27 -3 0 160 0 161 -43 0 c-48 0 -44 6 -80 -120 -17 -62 -27
-81 -37 -75 -6 3 -10 17 -10 30 0 13 -6 44 -14 67 -8 24 -17 55 -20 71 -6 25
-10 27 -56 27 l-50 0 0 -160z"/>
<path d="M2080 2448 c0 -2 -2 -73 -3 -158 l-2 -155 28 -3 27 -3 0 160 0 161
-25 0 c-14 0 -25 -1 -25 -2z"/>
<path d="M2463 2338 c6 -103 16 -142 33 -125 12 11 23 91 24 165 l0 72 -32 0
-31 0 6 -112z"/>
<path d="M710 2363 c-37 -14 -80 -75 -80 -113 0 -24 26 -84 42 -97 7 -6 30
-16 50 -24 33 -11 42 -11 73 4 93 44 99 185 11 222 -36 15 -69 18 -96 8z m75
-57 c29 -21 27 -92 -4 -117 -30 -25 -37 -24 -66 6 -31 30 -32 73 -5 103 24 25
48 28 75 8z"/>
<path d="M1030 2354 c0 -7 6 -31 14 -51 72 -191 70 -183 51 -204 -10 -10 -26
-19 -37 -19 -11 0 -18 -7 -18 -20 0 -17 7 -20 39 -20 43 0 76 29 88 79 3 14 9
31 13 36 3 6 15 37 25 70 11 33 22 65 26 70 3 6 9 22 13 38 6 25 4 27 -23 27
-28 0 -31 -4 -51 -70 -13 -44 -27 -70 -36 -70 -8 0 -14 8 -14 18 0 9 -8 39
-18 66 -14 39 -24 51 -45 57 -20 5 -27 4 -27 -7z"/>
<path d="M1854 2360 c-62 -25 -87 -130 -45 -188 28 -40 97 -60 137 -39 46 24
66 53 71 102 11 94 -75 161 -163 125z m86 -60 c28 -28 26 -75 -5 -105 -29 -30
-36 -31 -66 -6 -18 14 -24 29 -24 61 0 65 53 92 95 50z"/>
<path d="M2364 2362 c-17 -2 -27 -19 -45 -77 -13 -41 -28 -70 -32 -66 -4 4
-18 37 -31 72 -19 55 -27 64 -49 67 -29 4 -35 -13 -18 -46 21 -37 61 -159 61
-183 0 -31 -17 -49 -46 -49 -17 0 -21 -4 -17 -20 4 -15 14 -20 43 -20 55 0 72
26 125 185 15 44 32 90 38 103 13 26 2 40 -29 34z"/>
<path d="M2460 2160 c0 -28 3 -31 28 -28 21 2 27 8 27 28 0 20 -6 26 -27 28
-25 3 -28 0 -28 -28z"/>
<path d="M2022 1760 c0 -14 2 -19 5 -12 2 6 2 18 0 25 -3 6 -5 1 -5 -13z"/>
<path d="M2039 1718 c-1 -7 -2 -29 -3 -50 -2 -20 -16 -62 -32 -94 -38 -77 -38
-78 -25 -70 24 15 63 111 69 168 2 32 2 58 -2 58 -3 0 -6 -6 -7 -12z"/>
<path d="M1675 1500 c-22 -10 -43 -16 -47 -14 -5 3 -8 0 -8 -5 0 -6 5 -11 11
-11 6 0 8 -8 4 -19 -8 -28 8 -33 48 -16 45 19 81 12 171 -31 243 -118 406
-378 406 -649 0 -162 -71 -358 -172 -474 -113 -129 -230 -200 -393 -241 -212
-53 -456 4 -627 148 -163 135 -268 356 -268 563 0 83 32 218 72 309 49 110
167 248 263 307 98 61 214 90 242 62 17 -17 40 -4 45 24 4 22 -1 28 -38 42
-79 30 -178 -3 -213 -71 -8 -16 -33 -41 -55 -55 -60 -37 -180 -163 -220 -230
-20 -33 -36 -62 -36 -65 0 -2 -9 -23 -19 -47 -34 -75 -52 -174 -52 -287 0
-248 93 -429 321 -626 19 -17 40 -39 46 -49 6 -11 23 -28 38 -39 26 -20 41
-21 317 -21 182 0 292 4 297 10 4 6 14 15 23 20 133 81 283 224 341 325 179
308 133 664 -117 915 -44 44 -97 89 -117 100 -21 10 -43 32 -49 48 -15 35 -62
70 -115 85 -52 15 -51 15 -99 -8z"/>
<path d="M1478 1483 c12 -2 30 -2 40 0 9 3 -1 5 -23 4 -22 0 -30 -2 -17 -4z"/>
<path d="M1563 1483 c9 -2 23 -2 30 0 6 3 -1 5 -18 5 -16 0 -22 -2 -12 -5z"/>
<path d="M1938 1462 l-17 -29 35 11 c19 6 29 12 20 14 -8 2 -16 10 -18 18 -2
11 -8 6 -20 -14z"/>
<path d="M1813 1203 c15 -2 39 -2 55 0 15 2 2 4 -28 4 -30 0 -43 -2 -27 -4z"/>
<path d="M1723 1171 c-68 -49 -97 -141 -68 -221 78 -218 388 -170 388 60 0 78
-43 150 -105 178 -39 16 -37 -4 2 -41 50 -48 28 -93 -26 -52 -13 10 -44 14
-96 15 -86 0 -96 10 -51 45 15 13 23 27 19 33 -10 17 -19 15 -63 -17z m237
-136 c0 -28 6 -39 30 -54 l30 -18 -30 -31 c-16 -18 -30 -36 -30 -41 0 -16 -84
-51 -121 -51 -50 1 -99 29 -131 75 -28 41 -36 75 -18 75 6 0 10 -7 10 -16 0
-15 32 -68 55 -89 27 -25 97 -30 131 -9 56 35 83 84 45 84 -44 0 -55 67 -13
85 12 5 22 13 22 17 0 5 5 8 10 8 6 0 10 -16 10 -35z m-141 -19 c23 -28 -17
-68 -45 -45 -17 14 -18 31 -2 47 16 16 33 15 47 -2z"/>
<path d="M1155 1174 c-121 -63 -154 -218 -66 -318 56 -64 183 -75 260 -22 115
80 105 273 -19 336 -48 24 -132 26 -175 4z m134 -19 c13 -14 27 -25 32 -25 5
0 9 -8 9 -17 0 -15 -10 -18 -69 -18 -58 0 -75 -4 -102 -24 -22 -16 -34 -20
-37 -13 -2 7 -8 10 -13 6 -19 -12 -7 23 22 61 34 45 49 53 99 54 25 0 42 -7
59 -24z m-111 -144 c21 -13 11 -64 -16 -76 -33 -14 -23 -35 28 -62 48 -26 95
-25 133 2 30 21 57 67 57 98 0 15 4 27 9 27 18 0 20 -16 10 -55 -15 -54 -65
-101 -116 -109 -43 -8 -123 8 -123 24 0 6 -7 10 -15 10 -8 0 -15 4 -15 8 0 5
-9 20 -21 33 l-20 24 27 21 c14 12 23 27 20 33 -15 24 15 40 42 22z m132 -6
c18 -21 5 -45 -25 -45 -20 0 -25 5 -25 23 0 39 26 50 50 22z"/>
<path d="M2026 1177 c3 -10 9 -15 12 -12 3 3 0 11 -7 18 -10 9 -11 8 -5 -6z"/>
<path d="M2050 1147 c0 -2 9 -22 20 -44 28 -58 42 -131 35 -180 -4 -27 -2 -44
6 -49 9 -5 10 16 7 82 -4 71 -10 100 -31 142 -23 44 -37 63 -37 49z"/>
<path d="M1455 585 c-87 -34 -144 -119 -145 -217 0 -71 10 -96 55 -147 94
-104 262 -92 351 25 23 30 29 49 32 105 4 73 -14 126 -61 177 -54 59 -159 84
-232 57z"/>
</g>
</svg>
